<svg width="269" height="20" viewBox="0 0 269 20" fill="none" xmlns="http://www.w3.org/2000/svg">
<path d="M0 17.44V16H8V17.44H0ZM8 17.44V16H16V17.44H8ZM16 17.44V16H24V17.44H16ZM24 17.44V16H32V17.44H24ZM32 17.44V16H40V17.44H32ZM40 17.44V16H48V17.44H40ZM48 17.44V16H56V17.44H48ZM56 17.44V16H64V17.44H56ZM64 17.44V16H72V17.44H64ZM72 17.44V16H80V17.44H72ZM80 17.44V16H88V17.44H80ZM88 17.44V16H96V17.44H88ZM96 17.44V16H104V17.44H96ZM104 17.44V16H112V17.44H104ZM112 17.44V16H120V17.44H112ZM125.363 12.496V10.496H129.891V12.496H125.363ZM137.283 6.336L135.155 7.504V7.088L137.283 8.24L136.499 9.552L134.515 8.368L134.739 8.224L134.771 10.448H133.267L133.283 8.224L133.507 8.368L131.523 9.552L130.755 8.24L132.883 7.088V7.504L130.755 6.336L131.523 5.024L133.507 6.224L133.283 6.352L133.267 4.128H134.771L134.739 6.352L134.515 6.224L136.499 5.024L137.283 6.336ZM138.16 12.496V10.496H142.688V12.496H138.16ZM148.031 17.44V16H156.031V17.44H148.031ZM156.031 17.44V16H164.031V17.44H156.031ZM164.031 17.44V16H172.031V17.44H164.031ZM172.031 17.44V16H180.031V17.44H172.031ZM180.031 17.44V16H188.031V17.44H180.031ZM188.031 17.44V16H196.031V17.44H188.031ZM196.031 17.44V16H204.031V17.44H196.031ZM204.031 17.44V16H212.031V17.44H204.031ZM212.031 17.44V16H220.031V17.44H212.031ZM220.031 17.44V16H228.031V17.44H220.031ZM228.031 17.44V16H236.031V17.44H228.031ZM236.031 17.44V16H244.031V17.44H236.031ZM244.031 17.44V16H252.031V17.44H244.031ZM252.031 17.44V16H260.031V17.44H252.031ZM260.031 17.44V16H268.031V17.44H260.031Z" fill="#FEBD17"/>
</svg>
