<svg width="136" height="46" viewBox="0 0 136 46" fill="none" xmlns="http://www.w3.org/2000/svg">
<path d="M0.312 45V0.199997H8.888L35.32 32.456H31.16V0.199997H41.4V45H32.888L6.392 12.744H10.552V45H0.312ZM61.5355 18.248H83.1035V26.312H61.5355V18.248ZM62.3035 36.68H86.6875V45H51.9995V0.199997H85.8555V8.52H62.3035V36.68ZM114.841 45.768C108.484 45.768 103.513 43.9973 99.929 40.456C96.345 36.9147 94.553 31.8587 94.553 25.288V0.199997H104.921V24.904C104.921 29.1707 105.796 32.2427 107.545 34.12C109.294 35.9973 111.748 36.936 114.905 36.936C118.062 36.936 120.516 35.9973 122.265 34.12C124.014 32.2427 124.889 29.1707 124.889 24.904V0.199997H135.129V25.288C135.129 31.8587 133.337 36.9147 129.753 40.456C126.169 43.9973 121.198 45.768 114.841 45.768Z" fill="white"/>
</svg>
